<?xml version="1.0" encoding="utf-8"?>
<!-- Generator: Adobe Illustrator 25.2.1, SVG Export Plug-In . SVG Version: 6.00 Build 0)  -->
<svg version="1.1" id="Layer_1" xmlns="http://www.w3.org/2000/svg" xmlns:xlink="http://www.w3.org/1999/xlink" x="0px" y="0px"
	 viewBox="0 0 300 70" style="enable-background:new 0 0 300 70;" xml:space="preserve">
<style type="text/css">
	.st0{fill:#40A7DE;}
</style>
<g>
	<path class="st0" d="M51.8,46.7h-16l-3,7.2h-12L37.7,11h12.5l16.6,42.9H54.5L51.8,46.7z M48.8,38.2l-4.9-13.9L39,38.2H48.8z"/>
	<path class="st0" d="M81.4,7v46.9H70.8V7H81.4z"/>
	<path class="st0" d="M99.1,7v46.9H88.6V7H99.1z"/>
	<path class="st0" d="M125.1,11c3.3,0,7.5,0.5,10.8,3.8c2.5,2.5,3.8,6.2,3.8,9.7c0,3.7-1.3,6.9-3.5,9c-1.7,1.6-4,2.6-6.1,3
		l13.8,17.6h-14.2l-11-16.5v16.5h-11.4V11H125.1z M118.7,30.2h2.2c1.7,0,4.2-0.5,5.5-1.7c0.9-0.8,1.5-2.3,1.5-3.6
		c0-1.3-0.5-2.7-1.5-3.6c-1.1-1-3-1.7-5.5-1.7h-2.2V30.2z"/>
	<path class="st0" d="M153,7.3c3.3,0,5.9,2.6,5.9,5.8s-2.6,5.8-5.9,5.8c-3.3,0-5.9-2.6-5.9-5.8S149.7,7.3,153,7.3z M158.2,25.1v28.8
		h-10.6V25.1H158.2z"/>
	<path class="st0" d="M198.8,53.9h-10.6v-3.2c-3,3.7-6.9,4.1-8.9,4.1c-4.2,0-7.6-1.4-10.4-4c-3-2.8-4.8-6.9-4.8-11.5
		c0-4.9,2.1-8.9,4.8-11.4c2.9-2.7,6.8-3.9,10.4-3.9c4,0,6.9,1.7,8.8,3.7V7h10.6L198.8,53.9L198.8,53.9z M186.4,44.4
		c1.4-1.2,2.2-3.2,2.2-4.9c0-1.6-0.9-3.5-2-4.6c-1.2-1.2-2.8-1.9-4.8-1.9c-2.2,0-3.8,1-4.7,1.9c-1.2,1.2-2,3-2,4.9
		c0,1.5,0.7,3.2,2,4.5c1.5,1.4,3.2,1.9,4.7,1.9C183.5,46.1,185.2,45.3,186.4,44.4z"/>
	<path class="st0" d="M237.4,41.4h-22c0,1.5,0.6,3.6,1.8,4.8c0.7,0.6,2,1.4,4.4,1.4c0.3,0,2.1-0.1,3.4-0.8c0.7-0.4,1.4-1,1.8-1.9
		H237c-0.5,1.6-1.4,3.9-3.6,5.9s-5.6,4-12,4c-3.9,0-8.6-0.8-12.2-4.4c-1.9-1.9-4.4-5.4-4.4-10.9c0-4.8,1.8-8.7,4.4-11.1
		c2.4-2.3,6.3-4.2,12.1-4.2c3.4,0,7.9,0.7,11.3,3.9c4.2,3.9,4.7,8.9,4.7,12.1L237.4,41.4L237.4,41.4z M227.7,35.5
		c-0.3-1.1-0.9-2.3-1.7-3.1c-1.4-1.4-3.3-1.5-4.4-1.5c-1.8,0-3.2,0.5-4.3,1.5c-0.7,0.8-1.4,1.8-1.6,3.1H227.7z"/>
	<path class="st0" d="M254,50l-14.3-24.9H252l7.9,14.7l7.7-14.7h12.1L256,68.6h-11.8L254,50z"/>
</g>
</svg>
