<?xml version="1.0" encoding="UTF-8"?>
<!-- Generator: Adobe Illustrator 21.1.0, SVG Export Plug-In . SVG Version: 6.00 Build 0)  -->
<svg version="1.1" id="Redraw01" xmlns="http://www.w3.org/2000/svg" xmlns:xlink="http://www.w3.org/1999/xlink" x="0px" y="0px" viewBox="0 0 334.9 106.2" style="enable-background:new 0 0 334.9 106.2;" xml:space="preserve">
<style type="text/css">
	.st0{fill:#FF4338;}
</style>
<g>
	<path class="st0" d="M303.9,56.3c-0.3-2.5-2.4-4.3-5.2-4.3c-2.8,0-5,2.1-5.3,4.3H303.9z M309.9,65c-2,3.9-5.8,6.2-10.9,6.2   c-7.3,0-12.5-5.1-12.5-12.4c0-7.1,5.2-12.4,12.2-12.4c7.1,0,12,5.2,12,12.6c0,0.8,0,1.4-0.1,1.7h-17.3c0.2,2.8,2.8,4.8,5.7,4.8   c2.6,0,3.9-1.1,5-2.9L309.9,65z M260.9,47.1h7.3l5.5,14.8l5.5-14.8h7.1l-9.6,23.5h-6.4L260.9,47.1z M245.9,65c3.4,0,6-2.7,6-6.1   c0-3.4-2.7-6.1-6-6.1c-3.4,0-6,2.7-6,6.1C239.9,62.3,242.5,65,245.9,65 M258.5,47.1v23.5h-6.8v-3.1c-1.7,2.4-4.5,3.7-7.6,3.7   c-6.3,0-11.1-5.3-11.1-12.3c0-6.9,4.9-12.3,11.1-12.3c3.1,0,5.9,1.2,7.6,3.6v-3H258.5z M224.7,46.5c2,0,4.2,0.5,5.9,1.5v6.5   c-1.6-1.1-3.3-1.7-5.1-1.7c-3.7,0-6.4,2.5-6.4,6.1c0,3.6,2.7,6.1,6.4,6.1c1.9,0,3.7-0.7,5.1-1.8v6.6c-1.9,1.1-4,1.5-6,1.5   c-7.2,0-12.5-5-12.5-12.4C212.2,51.8,217.4,46.5,224.7,46.5 M196.2,65c3.4,0,6-2.7,6-6.1c0-3.4-2.7-6.1-6-6.1c-3.4,0-6,2.7-6,6.1   C190.1,62.3,192.8,65,196.2,65 M208.9,37.3v33.3H202v-3.1c-1.7,2.4-4.5,3.7-7.6,3.7c-6.3,0-11.1-5.3-11.1-12.3   c0-6.9,4.9-12.3,11.1-12.3c3.1,0,5.9,1.2,7.6,3.6V37.3H208.9z M164.3,70.6h-6.9V47.1h6.9v3c1.5-2.3,3.8-3.6,6.9-3.6   c5.4,0,8.7,3.7,8.7,9.6v14.5H173V57.7c0-3.1-1.5-4.9-4.2-4.9c-2.7,0-4.4,2-4.4,5.3V70.6z M145.5,47.1h6.9v23.5h-6.9V47.1z    M149.1,44.5c-2.2,0-3.9-1.9-3.9-3.9c0-2.1,1.7-3.9,3.9-3.9c2.2,0,3.9,1.9,3.9,3.9C153.1,42.7,151.4,44.5,149.1,44.5 M106.7,70.6   L95.3,37.3h7.5l6.9,22l7.1-22h5.8l7,22l7-22h7.3l-11.4,33.3h-5.9l-7.1-22.2l-7.1,22.2H106.7z"/>
	<path class="st0" d="M35.2,70.8h34.5c-4.4,4.3-10.5,7-17.3,7C45.8,77.8,39.7,75.1,35.2,70.8z M28.3,48c6,0.5,10.2,4.9,10.2,10.1   c0,3.8-2.3,7.3-5.7,9.4h-0.3c-2.9-4-4.6-9-4.6-14.5C27.8,51.3,28,49.7,28.3,48z M27.9,44.4c2.3-0.8,4.1-1,6.6-1   c7.6,0,13.6,6.2,13.6,13.7c0,3.8-1.5,7.5-4.2,10.3H38c2.3-2.3,3.9-5.5,3.9-9.2c0-7.1-5.7-13-14-13.2C27.8,44.8,27.8,44.5,27.9,44.4   z M34.7,40.3c-1.4,0-3.1,0.2-5,0.6c-0.1-0.2-0.1-0.5,0-0.6c2.8-1.2,6.2-1.9,9.8-1.9c10.1,0,18.4,8.4,18.4,17.8   c0,4.1-1.5,8.1-4.1,11.2h-5.6c2.2-3.1,3.5-6.8,3.5-10.5C51.7,47.7,44.2,40.3,34.7,40.3z M40.4,35.3c-2.3,0-4.5,0.3-7.7,1.1   c-0.1-0.2-0.1-0.5,0-0.6c3.6-1.5,7.8-2.4,12.4-2.4c12.8,0,22.5,9.9,22.5,21.5c0,4.3-1.4,8.8-4.1,12.4h-5.4   c2.2-3.3,3.4-7.1,3.4-11.2C61.5,44.6,52.2,35.3,40.4,35.3z M77.2,53.1c0,5.3-1.7,10.2-4.6,14.3h-4.9c2.3-3.7,3.5-8.2,3.5-12.4   c0-13.4-10.8-24.6-25.1-24.6c-1.9,0-4.3,0.2-7.5,1c-0.1-0.2-0.1-0.5,0-0.6c4.4-1.7,8.6-2.4,13.2-2.4C66.3,28.3,77.2,39.5,77.2,53.1   z M52.5,24.7c-15.6,0-28.3,12.6-28.3,28.3C24.2,69,37,81.4,52.5,81.4c15.9,0,28.4-12.9,28.4-28.3C80.9,37.6,68.2,24.7,52.5,24.7z"/>
</g>
</svg>